<svg xmlns="http://www.w3.org/2000/svg" version="1.1" xmlns:xlink="http://www.w3.org/1999/xlink" width="2000" height="158" viewBox="0 0 2000 158"><svg xml:space="preserve" width="2000" height="158" data-version="2" data-id="lg_MDfQ1fscKGoWZUl1VY" viewBox="0 0 566 158" x="0" y="0"><rect width="100%" height="100%" fill="transparent"></rect><path fill="#f18f0e" d="m168.155 88.54-5.23 3.54q1.77 3.54 4.58 6.66t6.55 5q3.73 1.89 8.12 1.89 3.23 0 6.2-1.08 2.96-1.08 5.31-3.08 2.35-2 3.7-4.85 1.34-2.85 1.34-6.39 0-3.7-1.31-6.35-1.3-2.66-3.34-4.55-2.05-1.88-4.43-3.11-2.39-1.24-4.55-2.01-4.69-1.61-7.43-3.27-2.73-1.65-3.88-3.54-1.16-1.89-1.16-4.12 0-2.62 2-4.74 2-2.11 6.39-2.11 3.16 0 5.36 1.23 2.19 1.23 3.73 3.16 1.54 1.92 2.54 3.92l5.62-3.23q-1.31-2.85-3.62-5.43-2.31-2.58-5.58-4.23-3.27-1.66-7.66-1.66-4.54 0-8.09 1.81-3.54 1.81-5.54 4.97-2 3.15-2 7.16 0 3.69 1.42 6.23 1.43 2.54 3.66 4.28 2.23 1.73 4.7 2.85 2.46 1.11 4.46 1.81 3.08 1.07 5.82 2.42 2.73 1.35 4.42 3.5 1.7 2.16 1.7 5.78 0 3.7-2.62 6.08-2.62 2.39-6.93 2.39-3.23 0-5.78-1.39-2.54-1.38-4.58-3.85-2.04-2.46-3.89-5.69m39.43 33.26h6.16V69.44h-6.16zm35.8-34.65q0-5.78-2.38-9.89-2.39-4.12-6.36-6.36-3.96-2.23-8.81-2.23-4.39 0-7.74 2.23-3.35 2.24-5.24 6.36-1.88 4.11-1.88 9.89 0 5.7 1.88 9.86 1.89 4.15 5.24 6.39 3.35 2.23 7.74 2.23 4.85 0 8.81-2.23 3.97-2.24 6.36-6.39 2.38-4.16 2.38-9.86m-6.23 0q0 4.08-1.66 6.93-1.65 2.85-4.39 4.31-2.73 1.46-6.04 1.46-2.7 0-5.32-1.46-2.61-1.46-4.31-4.31-1.69-2.85-1.69-6.93t1.69-6.93q1.7-2.85 4.31-4.31 2.62-1.47 5.32-1.47 3.31 0 6.04 1.47 2.74 1.46 4.39 4.31 1.66 2.85 1.66 6.93m28.41 18.48q5.7 0 9.89-2.27 4.2-2.27 6.97-6.74l-5-3.16q-1.93 3.24-4.7 4.82-2.77 1.57-6.39 1.57-3.62 0-6.16-1.54t-3.85-4.46q-1.31-2.93-1.31-7.09.08-4.08 1.43-6.89 1.34-2.81 3.85-4.31 2.5-1.5 6.04-1.5 3 0 5.24 1.31 2.23 1.31 3.5 3.62t1.27 5.46q0 .54-.23 1.35t-.46 1.2l2.46-3.55h-25.41v5.24h30.26q0-.15.04-.73t.04-1.12q0-5.62-2-9.7-2.01-4.08-5.74-6.28-3.73-2.19-8.97-2.19t-9.2 2.31q-3.97 2.31-6.16 6.47-2.2 4.16-2.2 9.7 0 5.47 2.12 9.62 2.12 4.16 5.93 6.51 3.81 2.35 8.74 2.35m48.66-22.33v21.56h6.16V82.53q0-6.39-3.27-10.13-3.27-3.73-8.89-3.73-3.47 0-6.12 1.54-2.66 1.54-4.43 4.77v-5.54h-6.16v35.42h6.16V83.3q0-2.62 1.12-4.62 1.11-2 3.15-3.12t4.74-1.12q3.69 0 5.62 2.24 1.92 2.23 1.92 6.62m50.44-38.5h-6.16v60.06h6.16zm-35.81 42.35q0 5.7 2.39 9.86 2.39 4.15 6.39 6.39 4.01 2.23 8.78 2.23 4.47 0 7.78-2.23 3.31-2.24 5.19-6.39 1.89-4.16 1.89-9.86 0-5.78-1.89-9.89-1.88-4.12-5.19-6.36-3.31-2.23-7.78-2.23-4.77 0-8.78 2.23-4 2.24-6.39 6.36-2.39 4.11-2.39 9.89m6.24 0q0-4.08 1.66-6.93 1.65-2.85 4.42-4.31 2.78-1.47 6.01-1.47 2.69 0 5.31 1.47 2.62 1.46 4.31 4.31 1.7 2.85 1.7 6.93t-1.7 6.93q-1.69 2.85-4.31 4.31-2.62 1.46-5.31 1.46-3.23 0-6.01-1.46-2.77-1.46-4.42-4.31-1.66-2.85-1.66-6.93m43.12 1.39-5.24 3.54q1.78 3.54 4.59 6.66 2.81 3.12 6.54 5 3.74 1.89 8.12 1.89 3.24 0 6.2-1.08 2.97-1.08 5.32-3.08 2.34-2 3.69-4.85 1.35-2.85 1.35-6.39 0-3.7-1.31-6.35-1.31-2.66-3.35-4.55-2.04-1.88-4.43-3.11-2.38-1.24-4.54-2.01-4.7-1.61-7.43-3.27-2.73-1.65-3.89-3.54-1.15-1.89-1.15-4.12 0-2.62 2-4.74 2-2.11 6.39-2.11 3.16 0 5.35 1.23 2.2 1.23 3.74 3.16 1.54 1.92 2.54 3.92l5.62-3.23q-1.31-2.85-3.62-5.43-2.31-2.58-5.58-4.23-3.28-1.66-7.67-1.66-4.54 0-8.08 1.81t-5.54 4.97q-2.01 3.15-2.01 7.16 0 3.69 1.43 6.23 1.42 2.54 3.66 4.28 2.23 1.73 4.69 2.85 2.47 1.11 4.47 1.81 3.08 1.07 5.81 2.42 2.74 1.35 4.43 3.5 1.69 2.16 1.69 5.78 0 3.7-2.61 6.08-2.62 2.39-6.93 2.39-3.24 0-5.78-1.39-2.54-1.38-4.58-3.85-2.04-2.46-3.89-5.69m53.52 17.09q5.69 0 9.89-2.27t6.97-6.74l-5.01-3.16q-1.92 3.24-4.69 4.82-2.78 1.57-6.39 1.57-3.62 0-6.16-1.54-2.55-1.54-3.85-4.46-1.31-2.93-1.31-7.09.07-4.08 1.42-6.89 1.35-2.81 3.85-4.31 2.5-1.5 6.05-1.5 3 0 5.23 1.31 2.23 1.31 3.51 3.62 1.27 2.31 1.27 5.46 0 .54-.24 1.35-.23.81-.46 1.2l2.47-3.55h-25.41v5.24h30.26q0-.15.04-.73.03-.58.03-1.12 0-5.62-2-9.7-2-4.08-5.73-6.28-3.74-2.19-8.97-2.19-5.24 0-9.21 2.31-3.96 2.31-6.16 6.47-2.19 4.16-2.19 9.7 0 5.47 2.12 9.62 2.11 4.16 5.93 6.51 3.81 2.35 8.74 2.35m48.66-22.33v21.56h6.16V82.53q0-6.39-3.27-10.13-3.28-3.73-8.9-3.73-3.46 0-6.12 1.54-2.65 1.54-4.43 4.77v-5.54h-6.16v35.42h6.16V83.3q0-2.62 1.12-4.62t3.16-3.12q2.04-1.12 4.73-1.12 3.7 0 5.62 2.24 1.93 2.23 1.93 6.62m19.17 10.7-4.85 3.01q1 2.07 2.97 4.08 1.96 2 4.81 3.27 2.85 1.27 6.39 1.27 5.47 0 8.82-3.08 3.35-3.08 3.35-7.7 0-3.16-1.51-5.16-1.5-2-4.04-3.43-2.54-1.42-5.62-2.65-1.85-.77-3.54-1.62-1.7-.85-2.77-1.92-1.08-1.08-1.08-2.47 0-1.77 1.38-2.62 1.39-.84 3.32-.84 2.77 0 4.96 1.31 2.2 1.3 3.66 3.31l4.93-3.16q-1.08-2-3.01-3.54-1.92-1.54-4.42-2.47-2.51-.92-5.35-.92-2.85 0-5.51 1-2.66 1-4.31 3.08-1.66 2.08-1.66 5.24 0 3.08 1.58 5.12t3.93 3.31q2.35 1.27 4.66 2.19 2.08.77 3.92 1.66 1.85.88 3.05 2.15 1.19 1.27 1.19 3.12 0 2.08-1.5 3.28-1.5 1.19-4.12 1.19-2.16 0-3.97-.81t-3.19-2.19q-1.39-1.39-2.47-3.01m43.28 11.63q5.69 0 9.89-2.27t6.97-6.74l-5.01-3.16q-1.92 3.24-4.69 4.82-2.77 1.57-6.39 1.57-3.62 0-6.16-1.54t-3.85-4.46q-1.31-2.93-1.31-7.09.07-4.08 1.42-6.89 1.35-2.81 3.85-4.31 2.5-1.5 6.05-1.5 3 0 5.23 1.31 2.24 1.31 3.51 3.62 1.27 2.31 1.27 5.46 0 .54-.23 1.35-.24.81-.47 1.2l2.47-3.55h-25.41v5.24h30.26q0-.15.04-.73t.04-1.12q0-5.62-2.01-9.7-2-4.08-5.73-6.28-3.74-2.19-8.97-2.19-5.24 0-9.2 2.31-3.97 2.31-6.16 6.47-2.2 4.16-2.2 9.7 0 5.47 2.12 9.62 2.12 4.16 5.93 6.51 3.81 2.35 8.74 2.35M18.329 66.625c-1.312 8.488.522 16.897 5.027 23.058 3.46 4.732 8.29 7.788 13.604 8.606 5.59.868 11.09-.414 15.477-3.627a19.716 19.716 0 0 0 3.273-3.037 13.407 13.407 0 0 1-7.512.819c-11.553-1.785-19.4-13.27-17.488-25.592.917-5.944 4.318-11.336 9.572-15.181 6.674-4.88 15.734-6.871 24.842-5.452 7.374 1.134 17.42 5.876 25.197 14.985 0 0-22.505-38.85-55.313-20.061-10.577 6.062-15.546 18.168-16.68 25.482"></path><path fill="#f18f0e" d="M82.445 95.726c1.636-8.438.128-16.896-4.14-23.225-3.283-4.86-7.995-8.103-13.27-9.119a20.702 20.702 0 0 0-15.605 3.046 19.716 19.716 0 0 0-3.39 2.899 13.407 13.407 0 0 1 7.54-.533c11.475 2.228 18.879 13.999 16.513 26.242-1.154 5.905-4.752 11.16-10.154 14.807-6.841 4.623-15.97 6.27-25.02 4.515-7.324-1.42-17.192-6.536-24.615-15.94 0 0 21.027 39.688 54.515 22.14 10.804-5.658 16.226-17.566 17.626-24.842"></path><path fill="#f18f0e" d="M36.3 113.096c8.478 1.311 16.886-.513 23.048-5.027 4.731-3.45 7.787-8.281 8.616-13.595a20.702 20.702 0 0 0-3.638-15.477 19.716 19.716 0 0 0-3.036-3.282 13.407 13.407 0 0 1 .828 7.521c-1.794 11.544-13.279 19.39-25.601 17.478-5.945-.916-11.337-4.317-15.182-9.572-4.88-6.674-6.87-15.723-5.451-24.842 1.143-7.374 5.875-17.419 14.994-25.197 0 0-38.86 22.506-20.071 55.313 6.063 10.588 18.168 15.546 25.493 16.68"></path><path fill="#f18f0e" d="M90.223 66.606C84.564 55.8 72.656 50.389 65.38 48.98c-8.429-1.637-16.887-.128-23.216 4.14-4.86 3.293-8.103 7.995-9.119 13.269a20.702 20.702 0 0 0 3.047 15.605A19.716 19.716 0 0 0 39 85.385a13.407 13.407 0 0 1-.542-7.541C40.686 66.369 52.457 58.966 64.7 61.342c5.904 1.143 11.159 4.741 14.806 10.143 4.624 6.852 6.27 15.97 4.515 25.03-1.42 7.315-6.536 17.182-15.94 24.615 0 0 39.688-21.037 22.14-54.524"></path><path stroke="#f18f0e" stroke-width="5" d="M0-92.852V92.852" transform="matrix(.8345 0 0 .8344 126.639 79)"></path></svg></svg>