<svg xmlns="http://www.w3.org/2000/svg" xml:space="preserve" width="192" height="192" data-version="2">
    <path fill="#f18f0e" d="m70.16 111.33-10.47 7.08q3.54 7.09 9.16 13.32 5.62 6.24 13.09 10.01 7.47 3.78 16.25 3.78 6.47 0 12.4-2.16 5.93-2.15 10.62-6.16 4.7-4 7.4-9.7 2.69-5.7 2.69-12.78 0-7.39-2.62-12.71-2.62-5.31-6.7-9.08-4.08-3.78-8.85-6.24-4.78-2.46-9.09-4-9.39-3.24-14.86-6.55-5.47-3.31-7.78-7.08-2.31-3.78-2.31-8.24 0-5.24 4.01-9.47 4-4.24 12.78-4.24 6.31 0 10.7 2.47 4.39 2.46 7.47 6.31 3.08 3.85 5.08 7.85l11.25-6.46q-2.62-5.7-7.24-10.86-4.62-5.16-11.17-8.47-6.54-3.31-15.32-3.31-9.09 0-16.17 3.62-7.08 3.62-11.09 9.93-4 6.31-4 14.32 0 7.39 2.85 12.48 2.85 5.08 7.31 8.54 4.47 3.47 9.4 5.7 4.92 2.23 8.93 3.62 6.16 2.16 11.63 4.85 5.46 2.7 8.85 7.01 3.39 4.31 3.39 11.55 0 7.39-5.24 12.16-5.23 4.78-13.86 4.78-6.47 0-11.55-2.77-5.08-2.78-9.16-7.7-4.08-4.93-7.78-11.4" paint-order="stroke"/>
</svg>
